<?xml version="1.0" standalone="no"?>
<!DOCTYPE svg PUBLIC "-//W3C//DTD SVG 20010904//EN"
 "http://www.w3.org/TR/2001/REC-SVG-20010904/DTD/svg10.dtd">
<svg version="1.0" xmlns="http://www.w3.org/2000/svg"
 width="2000.000000pt" height="2000.000000pt" viewBox="0 0 2000.000000 2000.000000"
 preserveAspectRatio="xMidYMid meet">
<g transform="translate(0.000000,2000.000000) scale(0.100000,-0.100000)"
fill="#FFFFFF" stroke="none">
<path d="M7870 17035 c0 -8 -232 -1672 -515 -3696 -283 -2024 -515 -3694 -515
-3710 l0 -29 1251 0 1251 0 -6 -37 c-17 -102 -936 -6727 -936 -6744 0 -19 13
-19 533 -19 l532 0 464 3333 c255 1832 468 3362 473 3400 l10 67 1254 0 1254
0 5 23 c8 37 135 926 135 947 0 20 -22 20 -2538 22 l-2537 3 452 3205 c249
1763 452 3215 453 3228 l0 22 -510 0 c-448 0 -510 -2 -510 -15z"/>
</g>
</svg>
